<?xml version="1.0" standalone="no"?>
<!DOCTYPE svg PUBLIC "-//W3C//DTD SVG 1.1//EN" "http://www.w3.org/Graphics/SVG/1.1/DTD/svg11.dtd" >
<svg xmlns="http://www.w3.org/2000/svg">
<metadata>Generated by IcoMoon</metadata>
<defs>
<font id="icomoon" horiz-adv-x="1024">
<font-face units-per-em="1024" ascent="960" descent="-64" />
<missing-glyph horiz-adv-x="1024" />
<glyph unicode="&#x20;" horiz-adv-x="512" d="" />
<glyph unicode="&#xe900;" horiz-adv-x="1173" d="M488.656-30.348c-208.134 26.993-381.269 186.151-427.231 392.741-57.821 259.893 114.971 537.335 364.376 585.060 171.332 32.785 321.947 2.704 433.359-86.55 87.063-69.748 137.405-141.821 170.162-243.613 26.414-82.084 29.484-194.331 7.565-276.645-64.199-241.093-303.13-402.78-548.231-370.993zM641.625 38.098c9.369 9.369-17.967 51.1-31.288 47.765-6.395-1.601-30.208-5.838-52.918-9.414s-53.316-11.423-68.014-17.436c-37.164-15.205-45.093-4.246-49.781 68.797-5.159 80.389 2.915 87.925 68.080 63.544 61.648-23.066 68.982-16.119 50.926 48.233-7.479 26.656-13.599 62.513-13.599 79.682s-6.323 41.92-14.051 55.002c-10.75 18.198-12.174 29.123-6.061 46.505 10.12 28.775 64.075 59.942 104.081 60.121 46.729 0.21 56.417 6.766 56.417 38.181 0 29.104-11.081 37.579-19.715 15.080-3.238-8.439-12.882-12.030-27.722-10.323-18.986 2.184-22.757 6.574-22.757 26.492 0 33.883 22.564 46.26 46.172 25.327l18.236-16.169-6.029 24.728c-8.46 34.695-19.595 45.466-47.003 45.466-27.046 0-32.181 15.861-7.247 22.381 9.084 2.375 16.516 6.469 16.516 9.098 0 9.229-44.49 51.102-54.296 51.102-5.453 0-27.984 12.367-50.068 27.481-47.2 32.305-85.671 46.841-123.965 46.841-22.166 0-27.671-3.286-27.671-16.516 0-13.102 5.548-16.542 26.839-16.643 29.917-0.141 54.519-12.107 44.824-21.802-3.471-3.471-25.424-15.75-48.785-27.288-52.17-25.766-72.426-59.986-72.426-122.356 0-24.106 22.185-150.12 49.299-280.031s47.493-239.124 45.285-242.696c-5.133-8.305 8.737-16.801 40.954-25.089 30.627-7.879 167.004-4.824 175.765 3.937zM406.297 507.458c-21.661 21.661-6.068 64.413 23.494 64.413 14.942 0 40.919-24.94 40.919-39.286 0-27.033-44.966-44.574-64.413-25.127zM379.871 625.548c5.654 6.813 18.187 12.269 27.85 12.124 17.225-0.257 17.255-0.5 1.54-12.387-22.257-16.834-43.422-16.645-29.389 0.263z" />
<glyph unicode="&#xe901;" horiz-adv-x="1173" d="M473.707-22.389c-161.037 28.595-296.806 130.615-365.591 274.712-38.367 80.376-50.309 132.58-50.309 219.922 0 218.872 154.318 416.72 367.576 471.262 278.591 71.251 556.462-103.799 611.893-385.472 48.156-244.708-106.389-495.614-349.208-566.943-55.768-16.382-160.815-22.988-214.361-13.48zM694.665 45.425c117.742 42.803 201.388 115.739 254.554 221.962 128.384 256.504-14.94 567.151-292.703 634.417-58.418 14.147-169.29 12.202-225.258-3.952-150.517-43.443-272.974-166.955-311.259-313.937-16.193-62.168-16.193-168.372 0-230.539 42.185-161.959 178.416-290.463 346.581-326.922 56.433-12.235 167.701-2.98 228.084 18.971zM639.654 77.056c-9.596 18.557-16.918 23.925-27.051 19.831-7.641-3.087-28.758-7.416-46.926-9.621s-47.52-9.462-65.227-16.127c-18.321-6.895-35.299-9.013-39.398-4.914-3.962 3.962-9.513 31.937-12.336 62.168-4.484 48.013-3.263 55.682 9.648 60.636 8.13 3.12 26.31 0.971 40.402-4.774 38.674-15.767 57.39-18.253 70.819-9.405 10.654 7.020 10.398 14.652-2.065 61.422-7.827 29.373-14.231 68.289-14.231 86.478s-6.503 44.45-14.452 58.357c-10.938 19.138-12.289 28.737-5.555 39.481 17.644 28.153 52.167 46.266 95.778 50.254 54.061 4.943 64.615 12.795 64.615 48.073 0 72.444-53.402 168.037-112.422 201.242-22.194 12.486-57.896 32.797-79.338 45.134-22.802 13.12-57.205 24.312-82.876 26.962-40.914 4.223-44.533 3.12-53.365-16.264-11.911-26.141-7.218-30.7 31.6-30.7 45.359 0 45.76-12.105 1.134-34.241-51.931-25.759-76.024-67.875-76.21-133.219-0.076-26.614 19.952-143.456 45.284-264.191 47.409-225.955 51.382-253.768 36.253-253.768-24.561 0-116.113 59.2-161.447 104.398-142.446 142.014-165.915 364.057-56.613 535.602 35.031 54.98 117 129.647 171.092 155.852 173.662 84.129 366.032 51.422 502.070-85.364 56.358-56.668 99.349-130.927 114.909-198.488 14.416-62.595 10.871-173.759-7.432-233.016-32.693-105.849-122.87-211.084-224.321-261.779-65.549-32.755-85.41-32.759-102.341-0.017zM407.817 517.711c-14.183 36.96 24.384 61.935 44.787 29.003 8.338-13.459 8.578-20.101 1.053-29.167-12.623-15.209-39.978-15.111-45.84 0.165zM620.506 541.581c-6.765 8.152-6.089 15.101 2.613 26.839 10.981 14.812 12.652 14.943 25.763 2.027 15.433-15.202 10.723-39.866-7.612-39.866-6.399 0-15.743 4.95-20.764 11z" />
<glyph unicode="&#xe902;" horiz-adv-x="1173" d="M445.935-10.38c-175.304 39.596-321.871 181.366-367.125 355.11-16.044 61.597-16.285 184.184-0.478 243.657 43.899 165.175 163.841 289.556 336.458 348.909 79.295 27.265 195.814 25.49 283.128-4.312 165.222-56.394 283.804-183.42 326.285-349.518 75.814-296.431-142.109-588.024-450.267-602.483-47.724-2.239-93.533 0.852-128 8.637zM640 22.746c138.739 29.129 253.522 116.862 315.874 241.438 105.186 210.154 39.176 452.756-159.294 585.441-67.786 45.318-128.433 63.225-227.83 67.271-99.898 4.066-152.004-7.172-234.298-50.531-63.633-33.527-149.514-119.501-183.484-183.682-89.27-168.663-63.5-378.79 63.498-517.746 112.909-123.54 267.819-175.303 425.534-142.19zM644.094 80.608c-7.49 19.701-10.267 20.496-55.538 15.915-26.209-2.652-61.389-10.6-78.177-17.662-44.238-18.609-53.017-11.626-59.706 47.491-7.605 67.219-1.133 73.457 56.047 54.021 44.536-15.138 79.682-12.491 79.513 5.99-0.050 5.371-5.623 28.008-12.387 50.304s-12.298 54.96-12.298 72.587c0 17.627-7.535 46.818-16.744 64.869-13.289 26.048-14.855 36.349-7.592 49.921 11.958 22.343 69.951 48.318 108.391 48.548 66.241 0.395 71.782 54.692 16.873 165.343-25.179 50.739-36.706 64.988-63.767 78.82-18.168 9.287-48.465 27.193-67.328 39.793-39.497 26.383-100.426 46.548-140.641 46.548-22.238 0-29.405-4.235-35.849-21.183-11.749-30.902-10.149-36.558 10.527-37.204 10.219-0.319 25.466-3.289 33.881-6.599 13.132-5.166 10.407-9.257-19.229-28.869-42.661-28.232-65.835-75.761-66.083-135.54-0.1-23.974 20.257-141.002 45.238-260.062 45.032-214.629 50.112-245.51 40.382-245.51-20.219 0-113.046 61.598-152.929 101.481-169.028 169.028-160.451 449.338 18.754 612.841 225.5 205.743 588.818 111.928 689.675-178.088 26.462-76.093 27.831-184.981 3.323-264.315-33.418-108.174-118.555-207.308-219.353-255.414-64.135-30.609-84.548-31.474-94.983-4.028zM419.097 514.942c-17.253 9.79-18.672 26.63-3.318 39.372 8.5 7.054 14.718 5.279 26.287-7.504 13.145-14.525 13.584-18.29 3.318-28.407-8.482-8.359-15.929-9.339-26.287-3.462zM627.725 538.769c-13.689 8.46-4.744 33.102 12.016 33.102 6.955 0 12.646-1.554 12.646-3.454s2.072-8.852 4.604-15.45c5.468-14.249-13.944-23.667-29.266-14.198z" />
<glyph unicode="&#xe903;" horiz-adv-x="1173" d="M445.935-10.38c-175.304 39.596-321.871 181.366-367.125 355.11-16.044 61.597-16.285 184.184-0.478 243.657 43.899 165.175 163.841 289.556 336.458 348.909 79.295 27.265 195.814 25.49 283.128-4.312 165.222-56.394 283.804-183.42 326.285-349.518 75.814-296.431-142.109-588.024-450.267-602.483-47.724-2.239-93.533 0.852-128 8.637zM640 22.746c138.739 29.129 253.522 116.862 315.874 241.438 105.186 210.154 39.176 452.756-159.294 585.441-67.786 45.318-128.433 63.225-227.83 67.271-99.898 4.066-152.004-7.172-234.298-50.531-63.633-33.527-149.514-119.501-183.484-183.682-89.27-168.663-63.5-378.79 63.498-517.746 112.909-123.54 267.819-175.303 425.534-142.19zM649.634 65.376c-3.028 3.028-5.505 12.503-5.505 21.055 0 14.113-4.77 15.079-51.613 10.452-28.387-2.804-65.349-10.895-82.137-17.98-44.226-18.666-53.016-11.68-59.706 47.448-7.585 67.042-0.749 73.974 53.83 54.589 24.763-8.795 51.038-12.719 64.851-9.685l23.222 5.1-15.514 49.848c-14.896 47.86-20.467 106.736-10.996 116.207 2.485 2.485 26.971-2.47 54.413-11.011s70.932-15.447 96.643-15.348c54.471 0.211 116.942 24.743 116.942 45.922 0 11.699-5.511 13-35.097 8.286-128.149-20.421-191.346-12.957-186.379 22.012 2.365 16.653 8.598 19.086 60.444 23.593 31.794 2.764 68.955 9.503 82.581 14.975 118.332 47.521 140.317 65.946 100.392 84.137-14.988 6.829-32.408 4.928-77.277-8.435-31.86-9.488-61.744-17.252-66.408-17.252s-11.078 20.785-14.252 46.188c-3.448 27.595-17.959 69.98-36.048 105.29-24.257 47.35-36.845 62.459-63.31 75.987-18.168 9.287-48.465 27.193-67.328 39.793-39.497 26.383-100.426 46.548-140.641 46.548-22.238 0-29.405-4.235-35.849-21.183-11.749-30.902-10.149-36.558 10.527-37.204 10.219-0.319 25.466-3.289 33.881-6.599 13.132-5.166 10.407-9.257-19.229-28.869-42.661-28.232-65.835-75.761-66.083-135.54-0.1-23.974 20.257-141.002 45.238-260.062 45.032-214.629 50.112-245.51 40.382-245.51-20.219 0-113.046 61.598-152.929 101.481-169.028 169.028-160.451 449.338 18.754 612.841 187.486 171.059 483.87 139.945 631.002-66.242 55.349-77.565 78.769-150.637 78.765-245.758-0.005-130.545-46.741-237.554-140.551-321.815-63.514-57.049-165.382-102.891-185.014-83.259zM419.097 514.942c-17.253 9.79-18.672 26.63-3.318 39.372 8.5 7.054 14.718 5.279 26.287-7.504 13.145-14.525 13.584-18.29 3.318-28.407-8.482-8.359-15.929-9.339-26.287-3.462zM627.725 538.769c-13.689 8.46-4.744 33.102 12.016 33.102 6.955 0 12.646-1.554 12.646-3.454s2.072-8.852 4.604-15.45c5.468-14.249-13.944-23.667-29.266-14.198z" />
<glyph unicode="&#xe904;" horiz-adv-x="1173" d="M450.065-2.287c-221.393 48.488-375.742 240.868-375.742 468.324 0 126.406 40.265 231.438 123.58 322.361 61.092 66.671 116.74 103.177 200.043 131.232 35.221 11.862 62.204 23.401 59.962 25.643s17.373 6.309 43.589 9.038c54.331 5.655 144.181-1.643 138.255-11.23-2.173-3.516 11.265-8.964 29.862-12.106 63.35-10.703 163.654-68.457 222.471-128.097 118.162-119.815 164.81-288.938 123.86-449.055-23.255-90.926-60.786-156.772-127.952-224.484-115.574-116.514-280.541-166.098-437.928-131.628zM696.265 27.653c73.737 24.758 137.354 66.204 192.644 125.505 59.732 64.066 89.319 117.775 110.497 200.579 80.288 313.922-182.084 613.095-502.406 572.874-110.688-13.898-196.914-56.528-276.396-136.646-153.554-154.784-174.16-407.3-47.906-587.079 117.454-167.249 332.744-239.305 523.567-175.234zM459.75 74.323c-2.022 3.406-6.32 29.397-9.55 57.757-7.045 61.848 1.767 69.323 56.903 48.266 39.964-15.263 110.321-10.523 97.027 6.535-14.348 18.411-34.322 91.428-34.322 125.466v34.824l50.284-15.65c27.656-8.608 71.321-15.569 97.032-15.469 54.471 0.211 116.942 24.743 116.942 45.922 0 11.699-5.511 13-35.097 8.286-128.149-20.421-191.346-12.957-186.379 22.012 2.365 16.653 8.598 19.086 60.444 23.593 31.794 2.764 68.955 9.503 82.581 14.975 118.332 47.521 140.317 65.946 100.392 84.137-14.988 6.829-32.408 4.928-77.277-8.435-31.86-9.488-59.802-17.252-62.094-17.252s-6.563 20.394-9.493 45.321c-10.236 87.096-63.97 176.797-119.908 200.169-15.82 6.61-40.149 20.587-54.063 31.060-51.194 38.533-164.498 60.182-184.181 35.192-4.472-5.677-10.717-21.118-13.877-34.313-6.479-27.049 3.535-37.485 36.501-38.038l20.645-0.346-21.146-13.131c-11.63-7.222-30.169-26.299-41.197-42.393-35.661-52.044-32.341-113.433 19.753-365.197 24.904-120.361 43.548-220.585 41.43-222.72-7.264-7.322-79.171 36.080-118.785 71.697-177.378 159.478-184.798 436.518-16.206 605.11 163.994 163.994 422.738 164.285 587.12 0.66 58.351-58.082 88.222-108.23 110.867-186.128 19.508-67.106 13.436-196.579-12.204-260.187-40.108-99.503-128.886-193.050-209.597-220.857-18.897-6.51-38.985-15.677-44.64-20.371-13.517-11.218-35.267-2.461-35.267 14.2 0 11.34-8.227 12.361-59.871 7.431-32.929-3.144-69.906-10.801-82.171-17.016-24.709-12.522-44.98-14.568-50.596-5.107zM724.377 156.79c-1.898 12.553-3.502 4.243-3.564-18.467s1.491-32.98 3.451-22.823c1.96 10.157 2.011 28.738 0.113 41.29zM714.323 208.516c-2.807 4.542-11.388 7.997-19.068 7.678-11.384-0.473-10.912-1.892 2.552-7.678 22.098-9.496 22.385-9.496 16.516 0zM419.097 514.942c-17.253 9.79-18.672 26.63-3.318 39.372 8.5 7.054 14.718 5.279 26.287-7.504 13.145-14.525 13.584-18.29 3.318-28.407-8.482-8.359-15.929-9.339-26.287-3.462zM627.725 538.769c-13.689 8.46-4.744 33.102 12.016 33.102 6.955 0 12.646-1.554 12.646-3.454s2.072-8.852 4.604-15.45c5.468-14.249-13.944-23.667-29.266-14.198z" />
<glyph unicode="&#xe905;" horiz-adv-x="1173" d="M450.065-2.287c-221.393 48.488-375.742 240.868-375.742 468.324 0 126.406 40.265 231.438 123.58 322.361 61.092 66.671 116.74 103.177 200.043 131.232 35.221 11.862 62.204 23.401 59.962 25.643s17.373 6.309 43.589 9.038c54.331 5.655 144.181-1.643 138.255-11.23-2.173-3.516 11.265-8.964 29.862-12.106 63.35-10.703 163.654-68.457 222.471-128.097 118.162-119.815 164.81-288.938 123.86-449.055-23.255-90.926-60.786-156.772-127.952-224.484-115.574-116.514-280.541-166.098-437.928-131.628zM696.265 27.653c73.737 24.758 137.354 66.204 192.644 125.505 59.732 64.066 89.319 117.775 110.497 200.579 80.288 313.922-182.084 613.095-502.406 572.874-110.688-13.898-196.914-56.528-276.396-136.646-153.554-154.784-174.16-407.3-47.906-587.079 117.454-167.249 332.744-239.305 523.567-175.234zM656.177 76.937c-7.795 12.612-1.622 16.013 19.188 10.571 9.97-2.607 16.092-8.034 13.604-12.060-6.241-10.098-26.191-9.192-32.792 1.488zM325.409 116.277c-223.711 145.114-257.25 457.474-69.302 645.422 163.994 163.994 422.738 164.285 587.12 0.66 92.96-92.532 127.547-183.506 120.863-317.905-4.967-99.862-22.742-150.745-79.809-228.461-36.984-50.366-127.105-123.166-152.319-123.045-5.996 0.033-9.519 19.39-9.763 53.646-0.522 73.346-9.678 80.732-63.17 50.966-34.565-19.234-43.742-21.414-52.143-12.387-16.168 17.374-37.080 89.095-37.080 127.173v34.824l50.284-15.65c27.656-8.608 71.321-15.569 97.032-15.469 54.471 0.211 116.942 24.743 116.942 45.922 0 11.699-5.511 13-35.097 8.286-128.149-20.421-191.346-12.957-186.379 22.012 2.365 16.653 8.598 19.086 60.444 23.593 31.794 2.764 68.955 9.503 82.581 14.975 118.332 47.521 140.317 65.946 100.392 84.137-14.988 6.829-32.408 4.928-77.277-8.435-31.86-9.488-59.802-17.252-62.094-17.252s-6.563 20.394-9.493 45.321c-10.236 87.096-63.97 176.797-119.908 200.169-15.82 6.61-40.149 20.587-54.063 31.060-51.194 38.533-164.498 60.182-184.181 35.192-4.472-5.677-10.717-21.118-13.877-34.313-6.479-27.049 3.535-37.485 36.501-38.038l20.645-0.346-21.146-13.131c-11.63-7.222-30.119-26.227-41.086-42.232-35.237-51.425-32.48-110.308 16.398-350.138 23.459-115.107 44.548-215.789 46.864-223.737 6.649-22.813-14.462-17.469-67.879 17.18z" />
<glyph unicode="&#xe906;" horiz-adv-x="1173" d="M491.355-9.195c-188.229 28.793-342.181 161.551-395.459 341.016-7.324 24.67-13.006 52.54-12.628 61.935s5.825-4.102 12.103-29.992c50.221-207.113 245.304-360.894 458.663-361.557 62.28-0.193 165.454 27.237 221.571 58.907 140.904 79.521 217.76 196.598 243.132 370.369 2.277 15.596 3.289 13.869 4.139-7.066 1.744-42.985-22.036-123.416-55.288-186.998-54.053-103.357-154.364-187.138-270.737-226.123-50.396-16.882-158.572-27.669-205.496-20.491zM656.177 76.937c-7.795 12.612-1.622 16.013 19.188 10.571 9.97-2.607 16.092-8.034 13.604-12.060-6.241-10.098-26.191-9.192-32.792 1.488zM344.354 106.046c-84.717 44.088-172.231 160.489-195.005 259.373-21.972 95.401-4.595 215.172 42.687 294.222l26.532 44.359h55.877c30.732 0 55.877-1.452 55.877-3.227s-7.351-19.427-16.335-39.226c-9.962-21.953-16.406-54.159-16.516-82.545-0.141-36.279 52.096-298.563 94.757-475.776 5.556-23.080 1.428-22.837-47.874 2.821zM722.199 146.595c-0.523 73.468-9.648 80.749-63.579 50.738-40.249-22.398-42.9-22.827-53.274-8.64-13.048 17.844-25.709 60.11-32.865 109.71-4.201 29.12-2.953 35.337 6.374 31.75 6.379-2.453 38.736-11.112 71.906-19.242 51.484-12.619 67.192-13.342 107.355-4.941 53.698 11.232 87.158 32.544 90.938 57.922 3.482 23.375-26.32 30.56-73.75 17.781-55.43-14.934-129.323-13.385-145.764 3.056-12.792 12.792-11.040 13.723 25.816 13.723 65.444 0 223.042 59.38 234.104 88.205 2.772 7.225 1.378 18.943-3.099 26.040-14.441 22.893-49.433 25.794-108.248 8.975-30.513-8.726-56.251-15.865-57.195-15.865s-4.052 13.935-6.907 30.968c-8.048 48.019-28.984 110.827-46.797 140.387l-16.173 26.839h232.366l22.029-34.896c40.041-63.43 55.207-119.048 55.787-204.588 0.786-115.896-31.529-199.757-108.812-282.378-34.755-37.156-106.234-89.286-122.294-89.189-4.144 0.025-7.707 24.166-7.917 53.646zM76.882 460.387c0.046 27.252 1.588 37.404 3.426 22.562s1.8-37.139-0.084-49.548c-1.884-12.409-3.388-0.265-3.342 26.987zM1017.658 514.065c0 15.897 1.7 22.4 3.777 14.452s2.077-20.955 0-28.903c-2.077-7.948-3.777-1.445-3.777 14.452zM83.233 551.914c0.396 9.62 2.353 11.577 4.989 4.989 2.386-5.961 2.092-13.084-0.652-15.828s-4.696 2.133-4.337 10.839z" />
<glyph unicode="&#xe907;" horiz-adv-x="901" d="M191.626-33.019c-6.539 17.039-0.551 44.641 13.305 61.337 20.184 24.32 18.604 40.415-7.949 80.939-36.486 55.685-43.372 167.972-13.224 215.656 14.011 22.16 4.538 45.912-34.604 86.768-55.703 58.142-107.347 178.954-107.886 252.384-0.414 56.311 37.613 90.942 101.068 92.040 28.723 0.497 97.836 12.918 153.585 27.602 79.931 21.054 105.192 38.192 119.481 81.058 18.768 56.305 91.284 89.036 148.562 67.057 17.366-6.664 49.074-1.188 70.462 12.168 80.996 50.583 185.279-57.212 119.238-123.253-34.86-34.86-138.203-30.692-152.338 6.144-13.294 34.643-80.246 41.501-99.59 10.202-15.407-24.929 73.048-61.626 184.344-76.48 99.375-13.263 133.219-37.458 132.812-94.949-0.53-74.862-51.704-195.331-107.886-253.972-39.142-40.856-48.615-64.607-34.604-86.768 30.148-47.684 23.262-159.971-13.224-215.656-25.168-38.411-27.547-57.324-9.887-78.604 12.791-15.412 17.503-43.014 10.471-61.337-18.318-47.737-453.887-49.891-472.136-2.335zM464.639 13.53c36.654 23.307 67.841 120.086 67.841 210.523v80.587h-204.8v-80.587c0-118.853 48.545-225.986 102.4-225.986 5.632 0 21.183 6.958 34.559 15.463zM431.582 488.96c113.888 0 141.858-6.199 141.858-31.441 0-42.072 71.963-4.951 103.065 53.164 34.478 64.422 3.032 121.936-89.684 164.035-105.003 47.678-192.36 49.522-300.284 6.34-132.136-52.87-154.229-121.709-66.88-208.388 48.176-47.806 56.793-50.482 62.942-19.549 5.963 29.998 30.247 35.84 148.983 35.84zM268.394 558.044c-12.838 15.468-17.861 42.404-11.164 59.857 32.314 84.208 149.682 41.301 122.375-44.737-15.555-49.008-76.238-57.258-111.21-15.119zM492.465 559.501c-55.31 66.645 36.223 146.827 97.575 85.475 26.082-26.082 28.753-42.085 11.577-69.361-29.904-47.486-77.308-54.485-109.152-16.115z" />
<glyph unicode="&#xe908;" horiz-adv-x="901" d="M197.968-34.777c-6.168 16.072 2.062 40.241 18.289 53.708 37.15 30.831 37.341 58.65 0.686 99.777-36.943 41.45-44.259 96.861-24.123 182.684 13.463 57.381 7.858 77.224-34.712 122.88-62.257 66.77-104.9 192.945-87.986 260.336 11.005 43.846 44.67 61.474 99.754 52.232 8.952-1.502 66.722 11.934 128.378 29.858 96.492 28.051 116.33 42.708 142.466 105.261 27.458 65.715 36.255 71.494 91.893 60.367 33.841-6.768 84.246-1.955 112.011 10.696 89.213 40.648 149.713-45.917 80.479-115.151-29.889-29.889-38.339-29.145-99.697 8.777-86.164 53.252-133.886 53.24-133.886-0.033 0-47.066 69.237-80.915 190.983-93.369 43.089-4.408 86.865-13.281 97.28-19.718 50.911-31.465-0.168-215.559-84.969-306.246-47.217-50.494-53.488-68.461-35.198-100.849 32.543-57.629 24.188-153.366-17.395-199.315-29.701-32.819-31.786-47.183-11.551-79.584 57.626-92.275 39.536-101.532-198.398-101.532-174.328 0-225.54 6.387-234.303 29.223zM520.016 79.774c18.119 45.284 32.944 119.012 32.944 163.84v81.506h-250.832l10.049-107.52c15.443-165.231 44.178-220.16 115.173-220.16 50.611 0 64.75 12.562 92.667 82.334zM327.68 437.76c0 23.562 26.097 30.72 111.997 30.72 91.139 0 109.802-5.721 100.209-30.72-27.254-71.022 114.788-6.137 156.278 71.389 34.516 64.493-9.703 140.834-107.212 185.094-110.065 49.959-207.139 50.208-315.94 0.808-141.505-64.248-162.701-161.013-54-246.517 62.369-49.059 108.668-53.65 108.668-10.774zM273.118 582.497c-6.774 17.653-2.496 41.917 9.506 53.919 31.856 31.856 86.016 3.891 86.016-44.413 0-50.508-76.853-58.156-95.522-9.506zM498.979 580.983c-7.094 18.486-3.077 43.431 8.925 55.433 31.204 31.204 90.325 2.685 82.174-39.639-9.079-47.143-74.704-58.52-91.1-15.794z" />
<glyph unicode="&#xe909;" horiz-adv-x="901" d="M204.8-40.013c0 13.193 14.2 39.678 31.555 58.855 28.569 31.569 27.333 42.023-13.071 110.503-40.030 67.845-42.066 84.178-19.776 158.578 23.28 77.702 21.568 86.369-27.093 137.16-59.502 62.107-119.049 213.749-101.694 258.974 6.445 16.795 31.437 34.276 55.539 38.848 288.949 54.809 282.292 51.897 316.227 138.289 30.463 77.552 35.363 80.856 101.514 68.446 39.605-7.43 80.936-3.553 96.077 9.013 39.224 32.553 93.203 3.402 93.203-50.334 0-66.442-54.95-79.090-125.466-28.879-63.445 45.177-113.093 40.753-133.29-11.878-19.495-50.804 30.016-89.433 132.43-103.321 135.509-18.377 161.996-27.638 174.852-61.141 17.042-44.411-43.115-196.491-102.061-258.018-48.661-50.791-50.373-59.459-27.093-137.16 22.291-74.4 20.254-90.733-19.776-158.578-40.404-68.48-41.641-78.934-13.071-110.503 65.334-72.194 40.433-82.842-193.725-82.842-158.493 0-225.28 7.111-225.28 23.987zM312.32-29.956c-14.080 5.681-37.12 5.681-51.2 0s-2.56-10.33 25.6-10.33c28.16 0 39.68 4.648 25.6 10.33zM599.040-29.956c-14.080 5.681-37.12 5.681-51.2 0s-2.56-10.33 25.6-10.33c28.16 0 39.68 4.648 25.6 10.33zM495.686 12.8c68.774 79.527 100.131 261.271 53.178 308.224-13.517 13.517-73.245 24.576-132.73 24.576-100.331 0-109.154-3.986-121.986-55.111-16.625-66.238 23.208-227.216 68.646-277.425 41.587-45.953 93.292-46.056 132.892-0.264zM555.024 389.397c189.597 63.503 217.182 206.908 59.939 311.607-69.295 46.14-300.471 46.14-369.766 0-74.277-49.457-101.837-90.308-101.837-150.948 0-132.039 229.591-221.641 411.664-160.659zM368.64 427.52c-22.324 14.427-5.533 19.853 61.44 19.853s83.764-5.426 61.44-19.853c-16.896-10.919-44.544-19.853-61.44-19.853s-44.544 8.934-61.44 19.853zM273.118 582.497c-6.774 17.653-2.496 41.917 9.506 53.919 31.856 31.856 86.016 3.891 86.016-44.413 0-50.508-76.853-58.156-95.522-9.506zM498.979 580.983c-7.094 18.486-3.077 43.431 8.925 55.433 31.204 31.204 90.325 2.685 82.174-39.639-9.079-47.143-74.704-58.52-91.1-15.794zM696.32 878.080c0 11.264-9.216 20.48-20.48 20.48s-20.48-9.216-20.48-20.48c0-11.264 9.216-20.48 20.48-20.48s20.48 9.216 20.48 20.48z" />
<glyph unicode="&#xe90a;" horiz-adv-x="901" d="M204.8-40.013c0 13.193 14.2 39.678 31.555 58.855 28.569 31.569 27.333 42.023-13.071 110.503-40.030 67.845-42.066 84.178-19.776 158.578 23.28 77.702 21.568 86.369-27.093 137.16-59.502 62.107-119.049 213.749-101.694 258.974 6.445 16.795 31.437 34.276 55.539 38.848 288.949 54.809 282.292 51.897 316.227 138.289 30.463 77.552 35.363 80.856 101.514 68.446 39.605-7.43 80.936-3.553 96.077 9.013 39.224 32.553 93.203 3.402 93.203-50.334 0-66.442-54.95-79.090-125.466-28.879-63.445 45.177-113.093 40.753-133.29-11.878-19.495-50.804 30.016-89.433 132.43-103.321 135.509-18.377 161.996-27.638 174.852-61.141 17.042-44.411-43.115-196.491-102.061-258.018-48.661-50.791-50.373-59.459-27.093-137.16 22.291-74.4 20.254-90.733-19.776-158.578-40.404-68.48-41.641-78.934-13.071-110.503 65.334-72.194 40.433-82.842-193.725-82.842-158.493 0-225.28 7.111-225.28 23.987zM312.32-29.956c-14.080 5.681-37.12 5.681-51.2 0s-2.56-10.33 25.6-10.33c28.16 0 39.68 4.648 25.6 10.33zM599.040-29.956c-14.080 5.681-37.12 5.681-51.2 0s-2.56-10.33 25.6-10.33c28.16 0 39.68 4.648 25.6 10.33zM495.686 12.8c68.774 79.527 100.131 261.271 53.178 308.224-13.517 13.517-73.245 24.576-132.73 24.576-100.331 0-109.154-3.986-121.986-55.111-16.625-66.238 23.208-227.216 68.646-277.425 41.587-45.953 93.292-46.056 132.892-0.264zM555.024 389.397c189.597 63.503 217.182 206.908 59.939 311.607-69.295 46.14-300.471 46.14-369.766 0-74.277-49.457-101.837-90.308-101.837-150.948 0-132.039 229.591-221.641 411.664-160.659zM368.64 427.52c-22.324 14.427-5.533 19.853 61.44 19.853s83.764-5.426 61.44-19.853c-16.896-10.919-44.544-19.853-61.44-19.853s-44.544 8.934-61.44 19.853zM290.645 592.896c4.036 12.109 16.094 22.016 26.795 22.016s22.758-9.907 26.795-22.016c4.036-12.109-8.021-22.016-26.795-22.016s-30.831 9.907-26.795 22.016zM515.925 592.896c4.036 12.109 16.094 22.016 26.795 22.016s22.758-9.907 26.795-22.016c4.036-12.109-8.021-22.016-26.795-22.016s-30.831 9.907-26.795 22.016zM696.32 878.080c0 11.264-9.216 20.48-20.48 20.48s-20.48-9.216-20.48-20.48c0-11.264 9.216-20.48 20.48-20.48s20.48 9.216 20.48 20.48z" />
<glyph unicode="&#xe90b;" horiz-adv-x="901" d="M209.493-39.68c4.459 13.376 20.333 28.396 35.277 33.377 16.197 5.399 21.395-0.288 12.871-14.080-8.841-14.304 1.631-23.137 27.43-23.137 37.787 0 39.423 5.321 17.322 56.32-13.424 30.976-37.326 77.056-53.116 102.4-24.451 39.246-24.484 46.080-0.223 46.080 15.667 0 46.679-39.168 68.915-87.040 36.287-78.12 47.776-87.040 112.11-87.040 61.446 0 76.792 10.234 107.486 71.68 19.693 39.424 39.168 80.896 43.276 92.16s14.546 13.898 23.195 5.852c12.759-11.869-20.637-106.594-65.242-185.052-4.803-8.448 10.787-15.36 34.645-15.36 27.024 0 37.986 8.723 29.078 23.137-8.524 13.792-3.325 19.479 12.871 14.080 14.944-4.981 30.819-20.001 35.277-33.377 5.935-17.805-53.154-24.32-220.587-24.32s-226.522 6.515-220.587 24.32zM225.28 302.965c0 42.014 26.557 83.595 53.391 83.595 35.013 0 37.273-44.503 3.953-77.824-29.209-29.209-57.344-32.041-57.344-5.771zM577.536 308.736c-33.321 33.321-31.060 77.824 3.953 77.824 26.834 0 53.391-41.581 53.391-83.595 0-26.27-28.135-23.438-57.344 5.771zM95.774 599.568c-6.636 17.292-3.888 36.494 6.105 42.671 26.779 16.55 49.485-30.586 26.032-54.039-13.11-13.11-24.257-9.166-32.137 11.369zM290.645 592.896c4.036 12.109 16.094 22.016 26.795 22.016s22.758-9.907 26.795-22.016c4.036-12.109-8.021-22.016-26.795-22.016s-30.831 9.907-26.795 22.016zM515.925 592.896c4.036 12.109 16.094 22.016 26.795 22.016s22.758-9.907 26.795-22.016c4.036-12.109-8.021-22.016-26.795-22.016s-30.831 9.907-26.795 22.016zM727.549 590.536c-17.368 28.103-1.993 49.2 28.274 38.797 12.396-4.26 13.98-18.719 3.84-35.040-12.8-20.602-21.103-21.574-32.114-3.757zM143.36 693.76c0 11.264 18.976 20.48 42.169 20.48s36.473-9.216 29.511-20.48c-6.962-11.264-25.937-20.48-42.169-20.48s-29.511 9.216-29.511 20.48zM645.12 693.76c-6.962 11.264 6.319 20.48 29.511 20.48s42.169-9.216 42.169-20.48c0-11.264-13.28-20.48-29.511-20.48s-35.207 9.216-42.169 20.48zM419.84 775.68c6.962 11.264 21.329 20.48 31.929 20.48s19.271-9.216 19.271-20.48c0-11.264-14.368-20.48-31.929-20.48s-26.233 9.216-19.271 20.48zM593.92 893.634c0 34.593 83.199 67.689 118.473 47.128 29.575-17.24 26.226-20.574-21.193-21.099-30.976-0.343-56.32-9.839-56.32-21.103s-9.216-20.48-20.48-20.48c-11.264 0-20.48 6.999-20.48 15.554zM487.68 933.030c14.784 5.916 32.448 5.188 39.253-1.617s-5.291-11.646-26.88-10.756c-23.858 0.983-28.711 5.836-12.373 12.373z" />
<glyph unicode="&#xe90c;" horiz-adv-x="901" d="M209.493-39.68c4.459 13.376 20.333 28.396 35.277 33.377 16.197 5.399 21.395-0.288 12.871-14.080-8.841-14.304 1.631-23.137 27.43-23.137 37.787 0 39.423 5.321 17.322 56.32-13.424 30.976-37.326 77.056-53.116 102.4-24.451 39.246-24.484 46.080-0.223 46.080 15.667 0 46.679-39.168 68.915-87.040 36.287-78.12 47.776-87.040 112.11-87.040 61.446 0 76.792 10.234 107.486 71.68 19.693 39.424 39.168 80.896 43.276 92.16s14.546 13.898 23.195 5.852c12.759-11.869-20.637-106.594-65.242-185.052-4.803-8.448 10.787-15.36 34.645-15.36 27.024 0 37.986 8.723 29.078 23.137-8.524 13.792-3.325 19.479 12.871 14.080 14.944-4.981 30.819-20.001 35.277-33.377 5.935-17.805-53.154-24.32-220.587-24.32s-226.522 6.515-220.587 24.32zM225.28 302.965c0 42.014 26.557 83.595 53.391 83.595 35.013 0 37.273-44.503 3.953-77.824-29.209-29.209-57.344-32.041-57.344-5.771zM577.536 308.736c-33.321 33.321-31.060 77.824 3.953 77.824 26.834 0 53.391-41.581 53.391-83.595 0-26.27-28.135-23.438-57.344 5.771zM95.774 599.568c-6.636 17.292-3.888 36.494 6.105 42.671 26.779 16.55 49.485-30.586 26.032-54.039-13.11-13.11-24.257-9.166-32.137 11.369zM727.549 590.536c-17.368 28.103-1.993 49.2 28.274 38.797 12.396-4.26 13.98-18.719 3.84-35.040-12.8-20.602-21.103-21.574-32.114-3.757zM143.36 693.76c0 11.264 18.976 20.48 42.169 20.48s36.473-9.216 29.511-20.48c-6.962-11.264-25.937-20.48-42.169-20.48s-29.511 9.216-29.511 20.48zM645.12 693.76c-6.962 11.264 6.319 20.48 29.511 20.48s42.169-9.216 42.169-20.48c0-11.264-13.28-20.48-29.511-20.48s-35.207 9.216-42.169 20.48zM419.84 775.68c6.962 11.264 21.329 20.48 31.929 20.48s19.271-9.216 19.271-20.48c0-11.264-14.368-20.48-31.929-20.48s-26.233 9.216-19.271 20.48zM593.92 893.634c0 34.593 83.199 67.689 118.473 47.128 29.575-17.24 26.226-20.574-21.193-21.099-30.976-0.343-56.32-9.839-56.32-21.103s-9.216-20.48-20.48-20.48c-11.264 0-20.48 6.999-20.48 15.554zM487.68 933.030c14.784 5.916 32.448 5.188 39.253-1.617s-5.291-11.646-26.88-10.756c-23.858 0.983-28.711 5.836-12.373 12.373z" />
<glyph unicode="&#xe90d;" horiz-adv-x="901" d="M204.8-48.64c0 8.448 101.376 15.36 225.28 15.36s225.28-6.912 225.28-15.36c0-8.448-101.376-15.36-225.28-15.36s-225.28 6.912-225.28 15.36zM650.24 932.604c14.080 5.681 37.12 5.681 51.2 0s2.56-10.33-25.6-10.33c-28.16 0-39.68 4.648-25.6 10.33z" />
<glyph unicode="&#xe90e;" horiz-adv-x="1087" d="M1085.138 560.158l0.537-564.734-168.626 138.894-194.334-195.286-311.188 0.388-201.101 201.241-18.964-13.267-15.378-38.971-83.382-66.267-89.67 61.774 0.023 443.87 11.016 6c32.195 17.548 64.25 36.35 97.934 54.394 30.436 16.298 62.189 31.979 96.5 45.642l0.325 128.731 194.659 194.524 311.977-0.081 200.645-199.991-0.072-118.225c54.849-19.312 119.912-50.009 169.1-78.636z" />
<glyph unicode="&#xe90f;" horiz-adv-x="1087" d="M843.691 725.568l0.063-116.763c-43.838 11.72-89.196 23.863-135.588 29.47l0.023 39.395-78.356 74.445-142.444 0.050-74.283-73.936v-41.998c-44.858-7.136-89.111-18.644-132.006-30.58 0 0 0.415 102.531-0.532 102.531h0.289c-0.365 7.276 0.293 25.388 0.293 25.388l151.935 150.839 252.066-0.054 158.54-158.788z" />
<glyph unicode="&#xe910;" horiz-adv-x="1087" d="M845.974 250.382l0.582-83.982-153.853-153.505-252.504 0.266-155.553 155.283-0.095 77.481c41.361 21.405 84.248 37.703 129.836 49.504l0.42-70.769 78.92-78.938 142.977 0.559 72.871 73.137-0.239 76.011c0-0.009 92.286-21.905 136.639-45.047z" />
<glyph unicode="&#xe911;" horiz-adv-x="1087" d="M691.034 299.521l-0.032-69.091-63.208-63.474-122.366-0.266-67.557 68.45 0.023 66.781 30.003 5.779-0.023-60.326 48.935-49.224 95.453 0.289 49.323 49.044v59.315c9.735-2.084 29.448-7.276 29.448-7.276z" />
<glyph unicode="&#xe912;" horiz-adv-x="1087" d="M713.945-39.829l-293.676 0.361-188.709 188.15 0.023 32.574c0 0-29.606-16.303-44.858-29.371l0.027 34.32c23.669 17.034 50.424 34.577 76.52 48.534l0.068-72.979 171.572-171.301 266.484 0.244 166.38 166.907v81.803c22.14-11.503 42.291-24.779 62.658-38.348l-0.027-34.374c0 0-23.151 13.33-34.139 20.101l-0.28-43.698-182.042-182.922z" />
<glyph unicode="&#xe913;" horiz-adv-x="1087" d="M894.99 748.258l-0.077-124.545c58.621-19.515 114.918-45.295 167.205-75.731v-31.171c-61.611 34.302-127.955 63.407-196.626 85.47l0.045 130.278-173.196 173.372-267.291-0.257-165.189-164.481 0.559-141.659c-60.876-16.456-168.901-75.934-236.192-118.265l-0.050 33.986c64.304 35.046 128.027 75.099 205.413 104.083l0.338 134.455 182.304 182.173 294.501-0.077 188.254-187.631z" />
<glyph unicode="&#xe914;" horiz-adv-x="1087" d="M608.857 700.297l-100.496-0.271-43.4-43.987v-13.104l-30.052-3.496 0.050 31.221 60.592 60.245 126.132-0.050 65.829-59.78v-30.693l-28.785 3.749-0.005 12.374z" />
<glyph unicode="&#xe915;" horiz-adv-x="1087" d="M916.715 69.937c11.174 0 20.11 8.99 20.11 20.11 0 11.219-8.936 20.209-20.11 20.209-11.219 0-20.106-8.99-20.106-20.209 0-11.12 8.887-20.11 20.106-20.11zM916.715 74.71c-8.783 0-15.333 6.401-15.333 15.333 0 9.040 6.55 15.437 15.333 15.437 8.634 0 15.337-6.397 15.337-15.437 0-8.932-6.703-15.333-15.337-15.333zM921.289 88.676c3.704 0.257 5.688 1.822 5.688 5.688 0 5.54-3.298 6.397-8.129 6.397h-10.154v-20.922h4.669v8.837h3.252l4.673-8.837h5.079l-5.079 8.837zM913.364 91.82v5.282h4.52c2.034 0 4.728 0 4.728-2.134 0-2.639-1.322-3.149-3.663-3.149h-5.585z" />
<glyph unicode="&#xe916;" horiz-adv-x="1087" d="M272.728 560.235l-8.183-2.932-0.027-144.213c-16.528-7.642-34.248-12.112-50.708-20.557l0.095 146.346-9.076-4.493-0.077-289.44 9.396 5.052-0.023 133.21c15.369 7.497 33.972 13.826 50.356 20.232l-0.298-125.979 8.494 4.962 0.050 277.811zM291.399 586.52l-0.050-317.593c-15.586-7.353-30.075-15.437-44.569-23.593l0.365 129.624c-4.078-0.947-9.978-3.717-14.056-5.54v-131.081l-45.733-29.71 0.077 339.634c14.783 6.555 28.861 13.181 44.519 18.351l-0.383-146.806 13.181 4.66v146.91c15.139 5.021 31.135 10.993 46.648 15.143zM423.089 571.467l-12.306-2.842 0.244-206.78 11.99 2.643 0.072 206.979zM442.869 578.513l-14.35 13.154-25.126-4.488-11.526-14.056-0.072-227.301 9.369-7.863c11.521 2.454 22.609 5.088 35.245 8.16l6.388 10.195 0.072 222.199zM450.421 581.089l-19.641 18.148c-10.56-1.75-21.68-3.347-31.947-5.824l-15.568-18.351-0.095-231.857 15.085-13.109 42.237 10.195 9.857 16.023 0.072 224.775zM469.038 590.215l0.244-239.147-18.306-28.541c-20.173-4.66-40.635-8.449-60.299-14.273l-25.636 25.338 0.072 251.088 26.435 27.937 45.151 8.499 32.339-30.9zM332.76 578.18l-8.061-2.531-0.244-269.145 8.35 3.401-0.045 268.274zM353.199 603.613l-0.095-307.886c-15.802-5.752-34.487-13.235-49.779-20.295l-0.036 315.166c15.825 3.943 33.67 9.739 49.91 13.014zM108.463 429.424l-14.566-9.324 0.244-283.129 14.273 10.786 0.050 281.668zM137.009 458.8l-14.322 13.741-46.608-26.218-11.602-22.429-0.077-310.457 24.838-16.632c13.104 10.272 24.779 19.569 38.398 29.398l9.275 22.136 0.099 310.461zM146.284 463.794l-21.26 21.554-55.928-33.201-14.544-27.377-0.072-316.335 35.587-23.886c14.634 11.359 28.252 23.453 43.982 34.081l12.135 29.416c0 0 0.388 296.743 0.099 315.748zM174.248 476.907l-0.099-335.849-15.631-39.611c-23.741-16.528-45.512-34.667-66.704-53.013l-67.656 46.599-0.217 329.439 27.675 50.974 79.231 46.315 43.4-44.853zM1035.319 476.519c-20.972 11.359-42.602 22.447-64.963 32.43l-0.077-355.075c22.050-17.142 45.227-34.545 66.199-51.367v11.877c-17.62 14.201-34.902 27.531-53.911 42.237v169.068c18.806-10.118 35.998-20.245 53.911-29.714v12.369c-17.837 10.064-35.993 20.399-53.911 30.449l0.077 152.314c19.546-9.284 34.78-17.408 52.675-27.089v12.5zM796.501 550.306l-11.941 2.919-0.248-114.187 12.139-3.203 0.050 114.471zM930.478 536.908c-27.395 10.542-42.309 16.285-70.232 25.059v-8.742l25.641-8.133 0.189-274.22 8.787-4.849 0.365 276.060c12.117-4.371 22.050-8.097 35.222-13.425l0.027 8.251zM804.612 569.848l-30.007 7.263-9.248-11.363-0.077-139.232c17.408-4.516 32.624-9.902 49.743-15.148l0.072 141.271-10.484 17.21zM822.67 556.423l-13.393 20.972-36.995 9.031-14.756-18.644-0.392-243.225 8.178-2.039-0.027 95.25c17.48-5.021 31.974-9.378 49.427-15.333v-97.203l8.178-3.492-0.221 254.683zM718.438 596.914c-20.715 3.013-42.435 5.9-63.258 8.156l-0.469-7.574c8.873-1.15 20.2-2.111 29.105-3.492l-0.095-250.799 8.445-1.746 0.077 251.692 26.195-3.519v7.281zM636.825 645.218l-0.027-17.719 102.053-13.375-0.077-33.526 27.964 27.675c17.769-3.568 35.321-7.43 52.436-12.527 6.92-10.7 13.177-21.847 20.972-31.749 0 0 0.221 16.673 0.289 25.054 78.14-21.048 154.678-56.293 221.68-96.418l0.144-76.29c-17.011 10.434-32.858 19.578-51.683 28.816l-0.311-89.422c8.3-5.9 45.218-27.016 53.595-32.917v-75.447c-17.764 10.926-33.476 22.284-52.12 32.335 0 0-0.505-109.523-0.289-110.398 18.933-15.026 34.861-28.108 52.409-42.232v-84.473c0 0-78.068 67.503-120.886 99.328l-0.316 357.985c-9.108 4.001-19.154 8.81-28.762 11.359l0.239-277.978c-11.269 7.335-46.748 27.377-46.748 27.377l-0.077 269.244c-7.213 3.424-16.97 5.021-24.54 7.574l0.271-265.067c-15.301 6.915-30.562 12.062-45.71 18.54v94.569l-13.109 3.695v-93.022c-15.22 4.294-32.723 9.933-48.164 13.795l-0.194 253.442-25.559 4.344 0.51-251.48c-15.297 2.625-32.606 8.057-48.114 11.043 0 0-0.027 83.147 0.632 126.543l-0.582 0.871c0.659 40.563 0.266 119.136 0.050 120.593-7.425 0.965-16.722 1.529-24.522 2.332l0.023-54.083-66.528 0.194 0.14 87.099-18.179-0.289 0.244-124.576 48.475 0.198 37.333-35.826-0.050-199.238-32.046-33.228-83.598-0.271-36.729 36.702-0.027 126.71h66.632l0.095-93.504h18.184l-0.388 129.619h-48.354l-36.729 36.12 0.095 192.828c0 0 20.173 22.794 31.676 33.792 27.747 0.217 55.346 0.798 83.309 0.582l34.969-35.303zM531.836 650.27l-18.644-21.554v-161.959l22.699-22.14h48.967l14.566-14.566v-157.908l-14.566-13.962h-44.28l-13.402 13.407v83.905h-12.234v-89.246l20.39-19.713h54.177l21.554 20.976v167.201l-21.581 21.558h-48.94l-15.703 15.725v152.644l12.234 13.984h45.448l14.566-14.566v-74.572h11.652v79.231l-20.972 21.554h-55.932z" />
<glyph unicode="&#xe917;" d="M489.342 147.959c-265.987 153.886-297.65 174.059-337.068 214.749-33.088 34.157-43.474 68.17-43.474 142.374v61.873l59.2 34.752c240.765 141.335 456.403 264.37 500.619 285.635 74.282 35.724 139.196 29.461 219.381-21.167l33.6-21.215v-341.675c0-370.283 0.237-367.484-35.757-422.013-19.795-29.988-97.045-81.272-122.421-81.272-12.279 0-102.825 48.88-274.079 147.959zM627.2 467.578c0 23.441-2.706 38.022-7.057 38.022-11.773 0-69.73-34.734-69.737-41.794-0.010-8.143 64.484-41.858 71.625-37.444 2.843 1.757 5.169 20.304 5.169 41.217z" />
<glyph unicode="&#xe918;" d="M543.884 129.082c-309.794 179.177-332.214 192.802-365.517 222.146-43.388 38.23-54.734 67.353-57.588 147.824l-2.378 67.052 108.8 63.404c468.812 273.204 468.208 272.894 531.019 272.887 36.893-0.004 52.46-3.537 86.581-19.647 22.88-10.803 48.080-25.703 56-33.111l14.4-13.469v-337.844c0-321.633-0.611-339.478-12.739-371.892-12.657-33.828-45.111-70.916-87.225-99.679-45.553-31.112-31.421-36.441-271.352 102.329zM638.714 463.366c1.053 24.291-0.965 47.045-4.484 50.564-6.85 6.85-91.859-38.435-92.881-49.478-0.858-9.275 68.324-48.393 82.65-46.734 11.206 1.298 13.038 6.983 14.714 45.648z" />
<glyph unicode="&#xe919;" d="M752.685 16.523c-2.137 5.568-3.885 136.608-3.885 291.2s-1.004 281.077-2.23 281.077c-1.227 0-48.027-25.63-104-56.955-72.536-40.594-101.77-60.258-101.77-68.454 0-7.395 14.539-19.907 40.731-35.051 22.402-12.953 43.238-27.508 46.302-32.346 7.952-12.554 7.194-125.558-0.876-130.545-5.565-3.439-458.21 253.257-496.154 281.37-12.247 9.074-12.242 9.308 0.398 18.679 25.123 18.625 499.984 291.571 540.8 310.846 60.241 28.449 114.393 27.883 176.423-1.843 73.841-35.387 66.777 3.9 66.777-371.396 0-358.576-0.746-366.909-37.382-417.483-18.93-26.132-93.436-79.221-111.18-79.221-5.538 0-11.817 4.556-13.954 10.123z" />
<glyph unicode="&#xe91a;" d="M755.2 296.533c0 159.573-1.882 292.015-4.182 294.315s-13.1-1.129-24-7.619c-10.9-6.491-55.818-32.809-99.818-58.485s-85.246-51.2-91.657-56.72c-10.703-9.215-14.492-8.551-46.309 8.107-57.195 29.945-92.434 54.25-92.434 63.754 0 11.481 497.65 300.479 509.554 295.911 13.636-5.233 12.997-646.696-0.691-692.787-13.545-45.611-39.857-78.559-87.554-109.635-68.79-44.818-62.909-69.42-62.909 263.159z" />
<glyph unicode="&#xe91b;" d="M760.065 302.313c-1.495 259.853-2.718 289.716-11.938 291.491-9.976 1.92-166.892-86.853-209.098-118.293l-20.97-15.622-43.030 23.829c-58.159 32.207-78.23 46.765-78.23 56.745 0 10.229 497.427 299.789 505.95 294.521 9.348-5.777 7.949-657.255-1.482-690.241-12.097-42.311-38.037-75.61-81.593-104.743-22.366-14.96-44.554-27.2-49.306-27.2-7.101 0-8.936 51.562-10.305 289.513z" />
<glyph unicode="&#xe91c;" d="M765.745 17.188c-2.28 2.28-4.145 133.355-4.145 291.279 0 245.093-1.36 287.656-9.292 290.7-5.207 1.998-56.98-24.822-117.757-61.001-59.656-35.512-112.354-64.555-117.108-64.542-12.537 0.036-111.24 59.717-109.98 66.499 1.47 7.91 490.583 291.24 496.536 287.631 2.64-1.601 4.8-148.457 4.8-326.348 0-377.665 0.452-374.061-53.611-427.436-33.837-33.406-82.149-64.077-89.444-56.783z" />
<glyph unicode="&#xe91d;" d="M766.465 311.913c-1.552 272.85-2.424 292.86-12.857 294.868-11.292 2.174-37.358-12.191-156.461-86.222-35.89-22.308-70.162-40.56-76.16-40.56-14.179 0-105.332 52.773-103.131 59.709 0.926 2.92 109.608 67.911 241.515 144.426l239.83 139.118 1.659-326.597c1.85-364.261 1.631-366.467-41.2-413.875-19.846-21.967-77.019-63.579-87.354-63.579-2.296 0-4.924 131.721-5.84 292.713z" />
<glyph unicode="&#xe91e;" glyph-name="firefox" d="M1022.526 625.86l-11.86-76.080c0 0-16.954 140.856-37.732 193.514-31.846 80.688-46.014 80.040-46.108 79.922 21.33-54.204 17.462-83.324 17.462-83.324s-37.792 102.998-137.712 135.768c-110.686 36.282-170.57 26.364-177.488 24.486-1.050 0.008-2.064 0.010-3.030 0.010 0.818-0.062 1.612-0.146 2.426-0.212-0.034-0.020-0.090-0.042-0.082-0.052 0.45-0.548 122.306-21.302 143.916-50.996 0 0-51.76 0-103.272-14.842-2.328-0.666 189.524-23.964 228.746-215.674 0 0-21.030 43.876-47.040 51.328 17.106-52.036 12.714-150.776-3.576-199.85-2.096-6.312-4.24 27.282-36.328 41.75 10.28-73.646-0.616-190.456-51.708-222.632-3.982-2.504 32.030 115.31 7.242 69.762-142.708-218.802-311.404-100.972-387.248-49.11 38.866-8.462 112.654 1.318 145.314 25.612 0.042 0.030 0.078 0.056 0.118 0.086 35.468 24.252 56.472 41.964 75.334 37.772 18.874-4.214 31.438 14.726 16.78 31.53-14.676 16.838-50.314 39.978-98.524 27.366-34-8.904-76.134-46.522-140.448-8.432-49.364 29.25-54.012 53.546-54.45 70.376 1.218 5.966 2.754 11.536 4.576 16.624 5.682 15.87 22.912 20.658 32.494 24.438 16.256-2.792 30.262-7.862 44.968-15.406 0.19 4.894 0.252 11.39-0.018 18.76 1.41 2.802 0.538 11.252-1.722 21.58-1.302 10.308-3.42 20.974-6.752 30.692 0.012 0.002 0.020 0.010 0.030 0.014 0.056 0.018 0.108 0.040 0.156 0.070 0.078 0.044 0.146 0.112 0.208 0.19 0.012 0.020 0.030 0.034 0.044 0.052 0.082 0.124 0.154 0.272 0.198 0.466 1.020 4.618 12.022 13.524 25.718 23.1 12.272 8.58 26.702 17.696 38.068 24.752 10.060 6.248 17.72 10.882 19.346 12.098 0.618 0.466 1.358 1.012 2.164 1.636 0.15 0.116 0.3 0.232 0.454 0.354 0.094 0.074 0.19 0.148 0.286 0.226 5.41 4.308 13.484 12.448 15.178 29.578 0.004 0.042 0.010 0.080 0.012 0.122 0.050 0.504 0.092 1.014 0.13 1.534 0.028 0.362 0.050 0.726 0.072 1.096 0.014 0.284 0.032 0.566 0.044 0.856 0.030 0.674 0.050 1.364 0.060 2.064 0 0.040 0.002 0.076 0.004 0.116 0.022 1.658-0.006 3.386-0.104 5.202-0.054 1.014-0.126 1.93-0.298 2.762-0.008 0.044-0.018 0.092-0.028 0.136-0.018 0.082-0.036 0.164-0.058 0.244-0.036 0.146-0.076 0.292-0.122 0.43-0.006 0.018-0.010 0.032-0.016 0.046-0.052 0.16-0.112 0.314-0.174 0.464-0.004 0.006-0.004 0.010-0.006 0.016-1.754 4.108-8.32 5.658-35.442 6.118-0.026 0.002-0.050 0.002-0.076 0.002v0c-11.066 0.188-25.538 0.194-44.502 0.118-33.25-0.134-51.628 32.504-57.494 45.132 8.040 44.46 31.276 76.142 69.45 97.626 0.722 0.406 0.58 0.742-0.274 0.978 7.464 4.514-90.246 0.124-135.186-57.036-39.888 9.914-74.654 9.246-104.616 2.214-5.754 0.162-12.924 0.88-21.434 2.652-19.924 18.056-48.448 51.402-49.976 91.208 0 0-0.092-0.072-0.252-0.204-0.020 0.382-0.056 0.76-0.072 1.142 0 0-60.716-46.664-51.628-173.882-0.022-2.036-0.064-3.986-0.12-5.874-16.432-22.288-24.586-41.020-25.192-45.156-14.56-29.644-29.334-74.254-41.356-141.98 0 0 8.408 26.666 25.284 56.866-12.412-38.022-22.164-97.156-16.436-185.856 0 0 1.514 19.666 6.874 47.994 4.186-55.010 22.518-122.924 68.858-202.788 88.948-153.32 225.67-230.74 376.792-242.616 26.836-2.212 54.050-2.264 81.424-0.186 2.516 0.178 5.032 0.364 7.55 0.574 30.964 2.174 62.134 6.852 93.238 14.366 425.172 102.798 378.942 616.198 378.942 616.198z" />
</font>
</defs>
</svg>
